<?xml version="1.0" encoding="UTF-8" standalone="no"?>
<!-- Created with Inkscape (http://www.inkscape.org/) -->

<svg
   xmlns:dc="http://purl.org/dc/elements/1.1/"
   xmlns:cc="http://creativecommons.org/ns#"
   xmlns:rdf="http://www.w3.org/1999/02/22-rdf-syntax-ns#"
   xmlns:svg="http://www.w3.org/2000/svg"
   xmlns="http://www.w3.org/2000/svg"
   xmlns:sodipodi="http://sodipodi.sourceforge.net/DTD/sodipodi-0.dtd"
   xmlns:inkscape="http://www.inkscape.org/namespaces/inkscape"
   width="1000"
   height="1000"
   viewBox="0 0 264.58333 264.58334"
   version="1.1"
   id="svg8"
   inkscape:version="0.92.4 (5da689c313, 2019-01-14)"
   sodipodi:docname="logo-thizerlist.svg"
   inkscape:export-filename="/home/montgomery/Imagens/logo-thizerlist.png"
   inkscape:export-xdpi="96"
   inkscape:export-ydpi="96">
  <defs
     id="defs2" />
  <sodipodi:namedview
     id="base"
     pagecolor="#ffffff"
     bordercolor="#666666"
     borderopacity="1.0"
     inkscape:pageopacity="0.0"
     inkscape:pageshadow="2"
     inkscape:zoom="0.12374369"
     inkscape:cx="-637.65382"
     inkscape:cy="1406.3831"
     inkscape:document-units="mm"
     inkscape:current-layer="layer1"
     showgrid="false"
     units="px"
     inkscape:window-width="1920"
     inkscape:window-height="1016"
     inkscape:window-x="0"
     inkscape:window-y="27"
     inkscape:window-maximized="1" />
  <metadata
     id="metadata5">
    <rdf:RDF>
      <cc:Work
         rdf:about="">
        <dc:format>image/svg+xml</dc:format>
        <dc:type
           rdf:resource="http://purl.org/dc/dcmitype/StillImage" />
        <dc:title></dc:title>
      </cc:Work>
    </rdf:RDF>
  </metadata>
  <g
     inkscape:label="Camada 1"
     inkscape:groupmode="layer"
     id="layer1"
     transform="translate(0,-32.41665)">
    <g
       id="g876"
       transform="matrix(1.931513,0,0,1.931513,1966.0722,-370.11414)">
      <path
         style="opacity:1;fill:#00796b;fill-opacity:1;stroke:#ffffff;stroke-width:3;stroke-miterlimit:4;stroke-dasharray:none;stroke-opacity:1"
         d="m -885.90106,276.89301 a 63.5,63.5 0 0 1 -63.5,63.5 63.5,63.5 0 0 1 -63.50004,-63.5 63.5,63.5 0 0 1 63.50004,-63.5 63.5,63.5 0 0 1 63.5,63.5 z"
         id="path1360"
         inkscape:connector-curvature="0" />
      <g
         transform="translate(-399.06775,-25.927826)"
         id="g1487">
        <path
           style="fill:#fdfbfb;fill-opacity:1;stroke:none;stroke-width:0.05;stroke-linecap:butt;stroke-linejoin:miter;stroke-miterlimit:4;stroke-dasharray:none;stroke-opacity:1"
           d="m -556.49758,264.73253 c 0.13229,-2.56866 0.0357,-5.1594 0.39688,-7.70598 0.56652,-3.99423 5.83194,-6.18708 9.69036,-6.35 3.84412,-0.16231 8.33263,1.89876 10.15339,5.4901 0.62507,1.23292 1.26182,2.48102 1.62859,3.8138 0.60999,2.21661 0.57224,4.63899 0.91802,6.83568 l -2.3151,0.26458 c 0.42486,-4.11995 -0.49453,-7.51446 -2.10014,-10.45104 -1.47552,-2.69868 -5.17731,-4.48885 -8.3013,-4.36562 -3.05464,0.12048 -7.58664,1.44168 -7.75559,4.89479 -0.1585,2.88837 -0.20514,5.77673 -0.0992,8.6651 z"
           id="path1257"
           inkscape:connector-curvature="0"
           sodipodi:nodetypes="csasaccsaccc" />
        <g
           transform="translate(-211.57215,37.665321)"
           style="stroke:none"
           id="g1199">
          <path
             inkscape:connector-curvature="0"
             id="path1181"
             d="m -379.48809,295.48809 2.92931,-68.41369 9.69955,-1.52719 3.9076,-1.87459 61.89361,4.53571 3.02379,72.8549 -20.78868,5.57517 z"
             style="fill:#ed4747;fill-opacity:1;stroke:none;stroke-width:0.26458332px;stroke-linecap:butt;stroke-linejoin:miter;stroke-opacity:1" />
          <path
             inkscape:connector-curvature="0"
             id="path1169"
             d="m -379.48809,295.48809 2.92931,-68.41369 60.28722,5.10268 -2.55135,74.46132 z"
             style="fill:#d32f2f;fill-opacity:0;stroke:none;stroke-width:0.26458332px;stroke-linecap:butt;stroke-linejoin:miter;stroke-opacity:1" />
          <path
             sodipodi:nodetypes="ccccccc"
             inkscape:connector-curvature="0"
             id="path1171"
             d="m -376.55878,227.0744 9.69954,-1.52719 3.90761,-1.87459 61.89361,4.53571 -9.44941,1.70089 -5.76413,2.26786 z"
             style="fill:#c23c38;fill-opacity:1;stroke:none;stroke-width:0.26458332px;stroke-linecap:butt;stroke-linejoin:miter;stroke-opacity:1" />
          <path
             sodipodi:nodetypes="cccccc"
             inkscape:connector-curvature="0"
             id="path1173"
             d="m -316.27156,232.17708 -2.55135,74.46132 20.78868,-5.57517 -3.02379,-72.8549 -9.44941,1.70089 z"
             style="fill:none;stroke:none;stroke-width:0.26458332px;stroke-linecap:butt;stroke-linejoin:miter;stroke-opacity:1" />
          <path
             inkscape:connector-curvature="0"
             id="path1175"
             d="m -318.82291,306.6384 8.88243,-13.41816 -0.56695,-63.31102 -5.76413,2.26786 z"
             style="fill:#da4240;fill-opacity:1;stroke:none;stroke-width:0.26458332px;stroke-linecap:butt;stroke-linejoin:miter;stroke-opacity:1" />
          <path
             inkscape:connector-curvature="0"
             id="path1177"
             d="m -318.82291,306.6384 8.88243,-13.41816 11.90625,7.84299 z"
             style="fill:#ee4848;fill-opacity:1;stroke:none;stroke-width:0.26458332px;stroke-linecap:butt;stroke-linejoin:miter;stroke-opacity:1" />
          <path
             inkscape:connector-curvature="0"
             id="path1179"
             d="m -298.03423,301.06323 -11.90625,-7.84299 -0.56695,-63.31102 9.44941,-1.70089 z"
             style="fill:#ff4e4d;fill-opacity:1;stroke:none;stroke-width:0.26458332px;stroke-linecap:butt;stroke-linejoin:miter;stroke-opacity:1" />
        </g>
        <path
           style="fill:#c23c38;fill-opacity:1;stroke:none;stroke-width:0.02;stroke-linecap:butt;stroke-linejoin:miter;stroke-miterlimit:4;stroke-dasharray:none;stroke-opacity:1"
           d="m -544.46418,274.5322 c 1.39458,-1.97335 3.43417,-3.23002 4.18373,-5.92006 l 2.14974,0.0827 c -0.80618,2.55053 -2.65722,4.50401 -4.34909,6.54844 z"
           id="path1301-9-2"
           inkscape:connector-curvature="0"
           sodipodi:nodetypes="ccccc" />
        <path
           style="fill:#c23c38;fill-opacity:1;stroke:none;stroke-width:0.02;stroke-linecap:butt;stroke-linejoin:miter;stroke-miterlimit:4;stroke-dasharray:none;stroke-opacity:1"
           d="m -566.7272,272.73854 c 1.39458,-1.97335 3.43417,-3.23002 4.18373,-5.92006 l 2.14974,0.0827 c -0.80618,2.55053 -2.65722,4.50401 -4.34909,6.54844 z"
           id="path1301-1"
           inkscape:connector-curvature="0"
           sodipodi:nodetypes="ccccc" />
        <path
           sodipodi:nodetypes="cssaasacasssssscc"
           inkscape:connector-curvature="0"
           id="path1201-5"
           d="m -564.93117,272.93558 c 0.50474,0.46302 1.02176,0.95855 0.13229,1.38907 -0.99707,0.4826 -2.41634,0.16209 -2.11667,-3.50573 0.36499,-4.46735 3.69438,-10.58158 7.80521,-13.98985 3.26613,-2.70793 7.86243,-4.56711 12.07162,-4.0349 2.83957,0.35903 7.0569,1.8052 7.20989,4.66329 0.17342,3.23975 -2.00006,6.74719 -2.48047,10.21953 -0.32808,2.37131 -0.58946,4.78467 -0.26458,7.17682 0.66945,-0.0206 1.036,0.49706 0.89297,0.89297 -0.24451,0.67681 -1.83965,0.66168 -2.14974,0.19844 -1.22864,-1.83548 -0.86418,-3.46806 -0.79375,-5.15938 0.15941,-3.82823 1.37715,-7.59251 2.8112,-11.14557 1.5395,-3.81432 -3.49057,-4.99011 -5.52318,-5.19245 -3.96854,-0.39505 -7.90798,1.23654 -10.68255,3.80339 -3.38417,3.13081 -5.91822,7.7522 -6.87917,12.3362 -0.17833,0.85068 -0.26155,1.5761 -0.0331,2.34817 z"
           style="fill:#fdfbfb;fill-opacity:1;stroke:none;stroke-width:0.05;stroke-linecap:butt;stroke-linejoin:miter;stroke-miterlimit:4;stroke-dasharray:none;stroke-opacity:1" />
      </g>
      <path
         sodipodi:nodetypes="ccc"
         inkscape:connector-curvature="0"
         id="path843-2-7"
         d="m -979.96184,265.68285 c 0.44637,9.73314 4.87573,18.33867 11.13711,26.42554 18.09934,-18.22427 38.45203,-33.10695 60.25974,-45.83179"
         style="fill:none;stroke:#c23c38;stroke-width:5.50789309;stroke-linecap:round;stroke-linejoin:miter;stroke-miterlimit:4;stroke-dasharray:none;stroke-opacity:1" />
      <path
         sodipodi:nodetypes="ccc"
         inkscape:connector-curvature="0"
         id="path843-2"
         d="m -983.32763,264.3435 c 0.44637,9.73314 4.87573,18.33867 11.13711,26.42553 18.09935,-18.22426 38.45202,-33.10693 60.25974,-45.83178"
         style="fill:none;stroke:#fdfbfb;stroke-width:5.50789309;stroke-linecap:round;stroke-linejoin:miter;stroke-miterlimit:4;stroke-dasharray:none;stroke-opacity:1" />
    </g>
  </g>
</svg>
